<svg id="Layer_1" data-name="Layer 1" xmlns="http://www.w3.org/2000/svg" xmlns:xlink="http://www.w3.org/1999/xlink" viewBox="0 0 188.32 52.14"><defs><style>.cls-1{fill:none;}.cls-2{fill:#eaeaea;}.cls-3{clip-path:url(#clip-path);}.cls-4{fill:url(#linear-gradient);}.cls-5{clip-path:url(#clip-path-2);}.cls-6{clip-path:url(#clip-path-3);}.cls-7{clip-path:url(#clip-path-4);}.cls-8{clip-path:url(#clip-path-5);}.cls-9{clip-path:url(#clip-path-6);}</style><clipPath id="clip-path"><path id="_Compound_Clipping_Path_" data-name="&lt;Compound Clipping Path&gt;" class="cls-1" d="M96.6,34.43c0-.92,0-1.87,0-2.78,0-.61,0-1.23,0-1.87s0-1.29,0-1.92c0-.79,0-1.6,0-2.4s0-1.62,0-2.43c-.05-2.73-.35-5.79-3.22-7.53a11.19,11.19,0,0,0-6-1.38c-5,0-8.41,2.62-8.66,6.54l0,.55h1.89l.06-.46c.47-3.18,2.7-4.77,6.76-4.77,5,0,7.33,2.11,7.33,6.73v1.46c-1.21,0-2.48-.07-3.58-.07a26.32,26.32,0,0,0-9.56,1.38c-3.31,1.32-5,3.6-5,6.78,0,6.71,7.18,7.23,9.39,7.23,3.33,0,7.24-1.52,9-4.82,0,1.53.14,3.08.14,3.86V39H96.7l0-.47C96.62,37.21,96.61,35.79,96.6,34.43ZM78.47,32.31c0-5.64,6.75-6.4,13.34-6.4.49,0,1.08,0,1.64,0l1.23,0v2.84a11,11,0,0,1-1.31,4.91c-1.48,2.6-4,3.92-7.53,3.92C79.44,37.67,78.47,34.31,78.47,32.31Z"/></clipPath><linearGradient id="linear-gradient" x1="76.07" y1="19.19" x2="182.09" y2="19.19" gradientUnits="userSpaceOnUse"><stop offset="0" stop-color="#fe9990"/><stop offset="0.48" stop-color="#fb75b0"/><stop offset="1" stop-color="#c67ad1"/></linearGradient><clipPath id="clip-path-2"><path id="_Compound_Clipping_Path_2" data-name="&lt;Compound Clipping Path&gt;" class="cls-1" d="M112.79,14.07c-4.28,0-7.6,2-9.21,5.4V4.24h-2v27.6c0,2.44,0,4.21-.13,6.68l0,.46h1.79V33.83a9.9,9.9,0,0,0,8.95,5.48,10.51,10.51,0,0,0,8.69-4,14.45,14.45,0,0,0,2.68-8.76A14.42,14.42,0,0,0,121,18,9.76,9.76,0,0,0,112.79,14.07Zm-.07,1.82c6.13,0,8.87,5.35,8.87,10.66s-2.9,10.94-9.39,10.94c-7,0-8.87-6.7-8.87-10.66C103.32,18.2,109.23,15.89,112.71,15.89Z"/></clipPath><clipPath id="clip-path-3"><path id="_Compound_Clipping_Path_3" data-name="&lt;Compound Clipping Path&gt;" class="cls-1" d="M139.44,14.07c-4.28,0-7.6,2-9.21,5.4V4.24h-2v27.6c0,2.44,0,4.21-.13,6.68l0,.46h1.79V33.83a9.9,9.9,0,0,0,8.95,5.48,10.51,10.51,0,0,0,8.69-4,14.45,14.45,0,0,0,2.68-8.76A14.42,14.42,0,0,0,147.7,18,9.76,9.76,0,0,0,139.44,14.07Zm-.07,1.82c6.13,0,8.87,5.35,8.87,10.66s-2.9,10.94-9.39,10.94c-7,0-8.87-6.7-8.87-10.66C130,18.2,135.88,15.89,139.37,15.89Z"/></clipPath><clipPath id="clip-path-4"><path id="_Clipping_Path_" data-name="&lt;Clipping Path&gt;" class="cls-1" d="M164.71,14.12a9.66,9.66,0,0,0-8.63,4.8V4.24h-2V39h2V26.45a15.39,15.39,0,0,1,.29-3.46c1-4.45,4.12-7,8.52-7,5.78,0,6.95,3.32,6.95,8.69V39h2V23.5C173.85,17.28,170.73,14.12,164.71,14.12Z"/></clipPath><clipPath id="clip-path-5"><rect id="_Clipping_Path_2" data-name="&lt;Clipping Path&gt;" class="cls-1" x="177.89" y="14.34" width="2.02" height="24.65"/></clipPath><clipPath id="clip-path-6"><rect id="_Clipping_Path_3" data-name="&lt;Clipping Path&gt;" class="cls-1" x="177.89" y="4.24" width="2.02" height="3.64"/></clipPath></defs><title>Artboard 18</title><path id="_Compound_Path_" data-name="&lt;Compound Path&gt;" class="cls-2" d="M16.27,14.07c-4.11,0-7.21,1.81-8.83,5.38V14.34h-2l0,.48c.05,2.43,0,5,0,7.47V47.87h2v-14c1.62,3.45,5,5.39,9.29,5.39,8,0,10.8-6.72,10.8-12.48a14.43,14.43,0,0,0-2.64-8.76A10.39,10.39,0,0,0,16.27,14.07Zm0,1.82c6.49,0,9.39,5.49,9.39,10.94s-2.74,10.66-8.87,10.66c-4.44,0-9.18-2.87-9.18-10.94C7.56,18.69,12,15.89,16.22,15.89Z"/><path id="_Compound_Path_2" data-name="&lt;Compound Path&gt;" class="cls-2" d="M50.4,34.43c0-.92,0-1.86,0-2.77,0-.61,0-1.23,0-1.87s0-1.29,0-1.92c0-.79,0-1.6,0-2.4s0-1.62,0-2.43c-.05-2.73-.35-5.79-3.22-7.53a11.19,11.19,0,0,0-6-1.38c-5,0-8.41,2.62-8.66,6.54l0,.55h1.89l.06-.46c.47-3.18,2.77-4.77,6.84-4.77,5,0,7.4,2.11,7.4,6.73v1.46c-1.21,0-2.56-.07-3.66-.07a26.56,26.56,0,0,0-9.6,1.38c-3.31,1.32-5,3.6-5,6.78,0,6.71,7.17,7.23,9.38,7.23,3.33,0,7.11-1.52,8.88-4.82,0,1.54,0,3.08,0,3.86V39H50.5l0-.47C50.41,37.21,50.41,35.79,50.4,34.43ZM32.27,32.31c0-5.64,6.75-6.4,13.34-6.4.49,0,1.16,0,1.72,0l1.31,0v2.84a11.56,11.56,0,0,1-1.39,4.91c-1.48,2.6-4.05,3.92-7.57,3.92C33.28,37.67,32.27,34.31,32.27,32.31Z"/><polygon id="_Path_" data-name="&lt;Path&gt;" class="cls-2" points="74.14 14.34 64.85 35.53 55.1 14.34 52.99 14.34 63.91 38.18 59.55 47.87 61.66 47.87 76.25 14.34 74.14 14.34"/><g class="cls-3"><rect class="cls-4" x="76.07" y="-4.25" width="106.02" height="46.87" rx="12" ry="12"/></g><g class="cls-5"><rect class="cls-4" x="76.07" y="-4.25" width="106.02" height="46.87" rx="12" ry="12"/></g><g class="cls-6"><rect class="cls-4" x="76.07" y="-4.25" width="106.02" height="46.87" rx="12" ry="12"/></g><g class="cls-7"><rect class="cls-4" x="76.07" y="-4.25" width="106.02" height="46.87" rx="12" ry="12"/></g><g class="cls-8"><rect class="cls-4" x="76.07" y="-4.25" width="106.02" height="46.87" rx="12" ry="12"/></g><g class="cls-9"><rect class="cls-4" x="76.07" y="-4.25" width="106.02" height="46.87" rx="12" ry="12"/></g></svg>